<svg width="349" height="349" viewBox="0 0 349 349" fill="none" xmlns="http://www.w3.org/2000/svg">
<path d="M247.142 50.8829C247.142 48.9551 246.376 47.1062 245.013 45.743C243.65 44.3799 241.801 43.614 239.873 43.614H203.529C185.227 42.7024 167.309 49.0714 153.689 61.3295C140.069 73.5875 131.854 90.7381 130.84 109.034V148.286H94.4954C92.5676 148.286 90.7187 149.052 89.3556 150.415C87.9924 151.778 87.2266 153.627 87.2266 155.555V193.353C87.2266 195.281 87.9924 197.13 89.3556 198.493C90.7187 199.856 92.5676 200.622 94.4954 200.622H130.84V298.025C130.84 299.953 131.606 301.802 132.969 303.165C134.332 304.528 136.181 305.294 138.109 305.294H181.722C183.65 305.294 185.499 304.528 186.862 303.165C188.225 301.802 188.991 299.953 188.991 298.025V200.622H227.08C228.696 200.645 230.274 200.129 231.564 199.155C232.855 198.18 233.783 196.804 234.203 195.243L244.671 157.445C244.96 156.371 244.999 155.245 244.784 154.153C244.57 153.062 244.108 152.034 243.434 151.149C242.759 150.265 241.891 149.546 240.896 149.05C239.901 148.554 238.805 148.292 237.692 148.286H188.991V109.034C189.353 105.436 191.042 102.101 193.731 99.6817C196.419 97.2624 199.912 95.9318 203.529 95.95H239.873C241.801 95.95 243.65 95.1841 245.013 93.821C246.376 92.4578 247.142 90.6089 247.142 88.6811V50.8829Z" fill="#353535"/>
</svg>
