<svg width="462" height="105" viewBox="0 0 462 105" fill="none" xmlns="http://www.w3.org/2000/svg">
<g filter="url(#filter0_d_38_120)">
<path d="M42.5 13.1547C43.7376 12.4402 45.2624 12.4402 46.5 13.1547L74.1099 29.0953C75.3475 29.8098 76.1099 31.1303 76.1099 32.5594V64.4406C76.1099 65.8697 75.3475 67.1902 74.1099 67.9047L46.5 83.8453C45.2624 84.5598 43.7376 84.5598 42.5 83.8453L14.8901 67.9047C13.6525 67.1902 12.8901 65.8697 12.8901 64.4406V32.5594C12.8901 31.1303 13.6525 29.8098 14.8901 29.0953L42.5 13.1547Z" fill="#D73648"/>
</g>
<g filter="url(#filter1_d_38_120)">
<path d="M115.5 13.1547C116.738 12.4402 118.262 12.4402 119.5 13.1547L147.11 29.0953C148.348 29.8098 149.11 31.1303 149.11 32.5594V64.4406C149.11 65.8697 148.348 67.1902 147.11 67.9047L119.5 83.8453C118.262 84.5598 116.738 84.5598 115.5 83.8453L87.8901 67.9047C86.6525 67.1902 85.8901 65.8697 85.8901 64.4406V32.5594C85.8901 31.1303 86.6525 29.8098 87.8901 29.0953L115.5 13.1547Z" fill="#D73648"/>
</g>
<g filter="url(#filter2_d_38_120)">
<path d="M188.5 13.1547C189.738 12.4402 191.262 12.4402 192.5 13.1547L220.11 29.0953C221.348 29.8098 222.11 31.1303 222.11 32.5594V64.4406C222.11 65.8697 221.348 67.1902 220.11 67.9047L192.5 83.8453C191.262 84.5598 189.738 84.5598 188.5 83.8453L160.89 67.9047C159.652 67.1902 158.89 65.8697 158.89 64.4406V32.5594C158.89 31.1303 159.652 29.8098 160.89 29.0953L188.5 13.1547Z" fill="#D73648"/>
</g>
<g filter="url(#filter3_d_38_120)">
<path d="M261.5 13.1547C262.738 12.4402 264.262 12.4402 265.5 13.1547L293.11 29.0953C294.348 29.8098 295.11 31.1303 295.11 32.5594V64.4406C295.11 65.8697 294.348 67.1902 293.11 67.9047L265.5 83.8453C264.262 84.5598 262.738 84.5598 261.5 83.8453L233.89 67.9047C232.652 67.1902 231.89 65.8697 231.89 64.4406V32.5594C231.89 31.1303 232.652 29.8098 233.89 29.0953L261.5 13.1547Z" fill="#D73648"/>
</g>
<g filter="url(#filter4_d_38_120)">
<path d="M334.5 13.1547C335.738 12.4402 337.262 12.4402 338.5 13.1547L366.11 29.0953C367.348 29.8098 368.11 31.1303 368.11 32.5594V64.4406C368.11 65.8697 367.348 67.1902 366.11 67.9047L338.5 83.8453C337.262 84.5598 335.738 84.5598 334.5 83.8453L306.89 67.9047C305.652 67.1902 304.89 65.8697 304.89 64.4406V32.5594C304.89 31.1303 305.652 29.8098 306.89 29.0953L334.5 13.1547Z" fill="#D73648"/>
</g>
<g filter="url(#filter5_d_38_120)">
<path d="M407.5 13.1547C408.738 12.4402 410.262 12.4402 411.5 13.1547L439.11 29.0953C440.348 29.8098 441.11 31.1303 441.11 32.5594V64.4406C441.11 65.8697 440.348 67.1902 439.11 67.9047L411.5 83.8453C410.262 84.5598 408.738 84.5598 407.5 83.8453L379.89 67.9047C378.652 67.1902 377.89 65.8697 377.89 64.4406V32.5594C377.89 31.1303 378.652 29.8098 379.89 29.0953L407.5 13.1547Z" fill="#D73648"/>
</g>
<defs>
<filter id="filter0_d_38_120" x="0.890076" y="0.618774" width="95.2198" height="103.762" filterUnits="userSpaceOnUse" color-interpolation-filters="sRGB">
<feFlood flood-opacity="0" result="BackgroundImageFix"/>
<feColorMatrix in="SourceAlpha" type="matrix" values="0 0 0 0 0 0 0 0 0 0 0 0 0 0 0 0 0 0 127 0" result="hardAlpha"/>
<feOffset dx="4" dy="4"/>
<feGaussianBlur stdDeviation="8"/>
<feComposite in2="hardAlpha" operator="out"/>
<feColorMatrix type="matrix" values="0 0 0 0 0 0 0 0 0 0 0 0 0 0 0 0 0 0 0.25 0"/>
<feBlend mode="normal" in2="BackgroundImageFix" result="effect1_dropShadow_38_120"/>
<feBlend mode="normal" in="SourceGraphic" in2="effect1_dropShadow_38_120" result="shape"/>
</filter>
<filter id="filter1_d_38_120" x="73.8901" y="0.618774" width="95.2198" height="103.762" filterUnits="userSpaceOnUse" color-interpolation-filters="sRGB">
<feFlood flood-opacity="0" result="BackgroundImageFix"/>
<feColorMatrix in="SourceAlpha" type="matrix" values="0 0 0 0 0 0 0 0 0 0 0 0 0 0 0 0 0 0 127 0" result="hardAlpha"/>
<feOffset dx="4" dy="4"/>
<feGaussianBlur stdDeviation="8"/>
<feComposite in2="hardAlpha" operator="out"/>
<feColorMatrix type="matrix" values="0 0 0 0 0 0 0 0 0 0 0 0 0 0 0 0 0 0 0.25 0"/>
<feBlend mode="normal" in2="BackgroundImageFix" result="effect1_dropShadow_38_120"/>
<feBlend mode="normal" in="SourceGraphic" in2="effect1_dropShadow_38_120" result="shape"/>
</filter>
<filter id="filter2_d_38_120" x="146.89" y="0.618774" width="95.2198" height="103.762" filterUnits="userSpaceOnUse" color-interpolation-filters="sRGB">
<feFlood flood-opacity="0" result="BackgroundImageFix"/>
<feColorMatrix in="SourceAlpha" type="matrix" values="0 0 0 0 0 0 0 0 0 0 0 0 0 0 0 0 0 0 127 0" result="hardAlpha"/>
<feOffset dx="4" dy="4"/>
<feGaussianBlur stdDeviation="8"/>
<feComposite in2="hardAlpha" operator="out"/>
<feColorMatrix type="matrix" values="0 0 0 0 0 0 0 0 0 0 0 0 0 0 0 0 0 0 0.25 0"/>
<feBlend mode="normal" in2="BackgroundImageFix" result="effect1_dropShadow_38_120"/>
<feBlend mode="normal" in="SourceGraphic" in2="effect1_dropShadow_38_120" result="shape"/>
</filter>
<filter id="filter3_d_38_120" x="219.89" y="0.618774" width="95.2198" height="103.762" filterUnits="userSpaceOnUse" color-interpolation-filters="sRGB">
<feFlood flood-opacity="0" result="BackgroundImageFix"/>
<feColorMatrix in="SourceAlpha" type="matrix" values="0 0 0 0 0 0 0 0 0 0 0 0 0 0 0 0 0 0 127 0" result="hardAlpha"/>
<feOffset dx="4" dy="4"/>
<feGaussianBlur stdDeviation="8"/>
<feComposite in2="hardAlpha" operator="out"/>
<feColorMatrix type="matrix" values="0 0 0 0 0 0 0 0 0 0 0 0 0 0 0 0 0 0 0.25 0"/>
<feBlend mode="normal" in2="BackgroundImageFix" result="effect1_dropShadow_38_120"/>
<feBlend mode="normal" in="SourceGraphic" in2="effect1_dropShadow_38_120" result="shape"/>
</filter>
<filter id="filter4_d_38_120" x="292.89" y="0.618774" width="95.2198" height="103.762" filterUnits="userSpaceOnUse" color-interpolation-filters="sRGB">
<feFlood flood-opacity="0" result="BackgroundImageFix"/>
<feColorMatrix in="SourceAlpha" type="matrix" values="0 0 0 0 0 0 0 0 0 0 0 0 0 0 0 0 0 0 127 0" result="hardAlpha"/>
<feOffset dx="4" dy="4"/>
<feGaussianBlur stdDeviation="8"/>
<feComposite in2="hardAlpha" operator="out"/>
<feColorMatrix type="matrix" values="0 0 0 0 0 0 0 0 0 0 0 0 0 0 0 0 0 0 0.25 0"/>
<feBlend mode="normal" in2="BackgroundImageFix" result="effect1_dropShadow_38_120"/>
<feBlend mode="normal" in="SourceGraphic" in2="effect1_dropShadow_38_120" result="shape"/>
</filter>
<filter id="filter5_d_38_120" x="365.89" y="0.618774" width="95.2198" height="103.762" filterUnits="userSpaceOnUse" color-interpolation-filters="sRGB">
<feFlood flood-opacity="0" result="BackgroundImageFix"/>
<feColorMatrix in="SourceAlpha" type="matrix" values="0 0 0 0 0 0 0 0 0 0 0 0 0 0 0 0 0 0 127 0" result="hardAlpha"/>
<feOffset dx="4" dy="4"/>
<feGaussianBlur stdDeviation="8"/>
<feComposite in2="hardAlpha" operator="out"/>
<feColorMatrix type="matrix" values="0 0 0 0 0 0 0 0 0 0 0 0 0 0 0 0 0 0 0.25 0"/>
<feBlend mode="normal" in2="BackgroundImageFix" result="effect1_dropShadow_38_120"/>
<feBlend mode="normal" in="SourceGraphic" in2="effect1_dropShadow_38_120" result="shape"/>
</filter>
</defs>
</svg>
