<svg width="349" height="350" viewBox="0 0 349 350" fill="none" xmlns="http://www.w3.org/2000/svg">
<path d="M247.672 0H101.408C37.8752 0 0 37.8752 0 101.408V247.498C0 311.205 37.8752 349.08 101.408 349.08H247.498C311.03 349.08 348.906 311.205 348.906 247.672V101.408C349.08 37.8752 311.205 0 247.672 0ZM174.54 242.262C137.189 242.262 106.819 211.892 106.819 174.54C106.819 137.189 137.189 106.819 174.54 106.819C211.892 106.819 242.262 137.189 242.262 174.54C242.262 211.892 211.892 242.262 174.54 242.262ZM277.868 85.1756C276.995 87.2701 275.773 89.19 274.203 90.9354C272.457 92.5063 270.537 93.728 268.443 94.6007C266.348 95.4734 264.079 95.9971 261.81 95.9971C257.098 95.9971 252.734 94.2517 249.418 90.9354C247.847 89.19 246.625 87.2701 245.752 85.1756C244.88 83.0811 244.356 80.8121 244.356 78.5431C244.356 76.274 244.88 74.005 245.752 71.9105C246.625 69.6415 247.847 67.8961 249.418 66.1507C253.432 62.1363 259.541 60.2163 265.126 61.4381C266.348 61.6127 267.395 61.9617 268.443 62.4854C269.49 62.8344 270.537 63.3581 271.584 64.0562C272.457 64.5798 273.33 65.4525 274.203 66.1507C275.773 67.8961 276.995 69.6415 277.868 71.9105C278.741 74.005 279.264 76.274 279.264 78.5431C279.264 80.8121 278.741 83.0811 277.868 85.1756Z" fill="#353535"/>
</svg>
