<svg width="349" height="349" viewBox="0 0 349 349" fill="none" xmlns="http://www.w3.org/2000/svg">
<path d="M220.248 122.118C209.105 122.08 198.065 124.239 187.757 128.472C177.45 132.705 168.079 138.929 160.18 146.788C152.281 154.647 146.009 163.986 141.723 174.271C137.437 184.556 135.221 195.585 135.202 206.728V292.21C135.202 295.68 136.58 299.008 139.034 301.462C141.488 303.915 144.816 305.294 148.286 305.294H178.815C182.285 305.294 185.613 303.915 188.067 301.462C190.52 299.008 191.899 295.68 191.899 292.21V206.728C191.896 202.765 192.728 198.846 194.342 195.226C195.955 191.606 198.313 188.367 201.262 185.72C204.211 183.073 207.685 181.077 211.457 179.862C215.23 178.647 219.215 178.241 223.155 178.67C230.221 179.56 236.714 183.012 241.403 188.371C246.093 193.73 248.652 200.624 248.596 207.745V292.21C248.596 295.68 249.975 299.008 252.428 301.462C254.882 303.915 258.21 305.294 261.68 305.294H292.209C295.68 305.294 299.008 303.915 301.461 301.462C303.915 299.008 305.293 295.68 305.293 292.21V206.728C305.274 195.585 303.058 184.556 298.772 174.271C294.486 163.986 288.214 154.647 280.315 146.788C272.416 138.929 263.045 132.705 252.738 128.472C242.431 124.239 231.39 122.08 220.248 122.118Z" fill="#353535"/>
<path d="M95.9492 135.202H56.6973C49.4712 135.202 43.6133 141.06 43.6133 148.286V292.21C43.6133 299.436 49.4712 305.294 56.6973 305.294H95.9492C103.175 305.294 109.033 299.436 109.033 292.21V148.286C109.033 141.06 103.175 135.202 95.9492 135.202Z" fill="#353535"/>
<path d="M76.3232 109.033C94.3885 109.033 109.033 94.3885 109.033 76.3232C109.033 58.258 94.3885 43.6133 76.3232 43.6133C58.258 43.6133 43.6133 58.258 43.6133 76.3232C43.6133 94.3885 58.258 109.033 76.3232 109.033Z" fill="#353535"/>
</svg>
