<svg width="94" height="83" viewBox="0 0 94 83" fill="none" xmlns="http://www.w3.org/2000/svg">
<g filter="url(#filter0_d_13_46)">
<path d="M5.3802 0C2.4088 0 0 2.4088 0 5.3802V5.3802C0 8.3516 2.4088 10.7604 5.3802 10.7604H80.6198C83.5912 10.7604 86 8.3516 86 5.3802V5.3802C86 2.4088 83.5912 0 80.6198 0H5.3802ZM5.3802 31.9584C2.4088 31.9584 0 34.3672 0 37.3386V37.3386C0 40.31 2.4088 42.7188 5.3802 42.7188H80.6198C83.5912 42.7188 86 40.31 86 37.3386V37.3386C86 34.3672 83.5912 31.9584 80.6198 31.9584H5.3802ZM5.3802 64.2396C2.4088 64.2396 0 66.6484 0 69.6198V69.6198C0 72.5912 2.4088 75 5.3802 75H80.6198C83.5912 75 86 72.5912 86 69.6198V69.6198C86 66.6484 83.5912 64.2396 80.6198 64.2396H5.3802Z" fill="#F5F5F5"/>
</g>
<defs>
<filter id="filter0_d_13_46" x="0" y="0" width="94" height="83" filterUnits="userSpaceOnUse" color-interpolation-filters="sRGB">
<feFlood flood-opacity="0" result="BackgroundImageFix"/>
<feColorMatrix in="SourceAlpha" type="matrix" values="0 0 0 0 0 0 0 0 0 0 0 0 0 0 0 0 0 0 127 0" result="hardAlpha"/>
<feOffset dx="4" dy="4"/>
<feGaussianBlur stdDeviation="2"/>
<feComposite in2="hardAlpha" operator="out"/>
<feColorMatrix type="matrix" values="0 0 0 0 0 0 0 0 0 0 0 0 0 0 0 0 0 0 0.25 0"/>
<feBlend mode="normal" in2="BackgroundImageFix" result="effect1_dropShadow_13_46"/>
<feBlend mode="normal" in="SourceGraphic" in2="effect1_dropShadow_13_46" result="shape"/>
</filter>
</defs>
</svg>
