<svg width="320" height="75" viewBox="0 0 320 75" fill="none" xmlns="http://www.w3.org/2000/svg">
<path d="M84.5926 41.6994H81.7778H48.8889C47.2593 41.6994 46.3704 41.9941 46.6667 43.9096V49.5088H84.5926V58.7917H82.5185H24.7407C22.2222 58.9391 22.2222 58.9391 22.2222 56.7289V19.1552V16.7976H84.4445V25.3438H78.963H46.6667V32.7112H84.4445V41.8468L84.5926 41.6994ZM266.667 15.7662H285.037C286.37 15.7662 287.852 16.2082 288.889 16.945C295.556 20.9234 298.519 27.112 299.111 34.6267C299.556 40.9627 298.815 47.2986 294.667 52.6031C293.185 54.5187 291.111 56.1395 289.037 57.613C287.829 58.3272 286.442 58.6849 285.037 58.6444H248.593C246.839 58.7453 245.106 58.2231 243.704 57.1709C236 50.9823 233.185 42.8782 234.222 33.3006C234.667 28.2908 236.296 23.8703 239.852 20.0393C242.519 17.2397 245.63 15.4715 249.926 15.6189C255.407 16.0609 261.037 15.7662 266.667 15.7662ZM259.556 25.1965V48.9194L260.296 49.2141H286.222C286.667 49.2141 287.407 48.7721 287.704 48.3301C292.889 43.0255 293.037 32.1218 288.148 26.6699C287.556 25.9332 286.222 25.1965 285.185 25.1965H259.556ZM118.815 16.2082H139.259C141.63 16.0609 143.704 16.7976 145.63 18.2711C150.519 21.9548 153.037 27.112 153.778 32.8585C154.519 38.6051 154.222 44.2043 151.704 49.6562C150.519 52.4558 148.741 54.8134 146.074 56.5815C144.128 57.9544 141.793 58.6767 139.407 58.6444H96.8889C94.5185 58.6444 94.5185 58.6444 94.5185 56.4342V18.1238C94.5185 16.6503 94.963 16.2082 96.5926 16.2082H118.815ZM118.815 49.5088H139.259C141.481 49.5088 142.667 48.6247 143.704 47.0039C146.667 42.8782 147.111 38.1631 146.222 33.3006C145.63 30.943 144.741 28.7328 143.259 26.5226C142.815 26.0805 142.074 25.6385 141.481 25.6385H120C119.111 25.6385 118.667 25.7859 118.667 26.8173V49.5088H118.815ZM227.111 49.3615V58.9391H221.333H177.482C176 58.9391 174.519 58.3497 173.333 57.4656C170.841 55.7207 168.757 53.4615 167.223 50.8423C165.689 48.2231 164.741 45.3056 164.444 42.2888C163.259 34.4794 164.741 27.4067 169.926 21.2181C170.815 20.1866 172 19.1552 173.185 18.2711C174.963 16.7976 176.889 16.2082 179.111 16.2082H227.111V25.6385L192.593 25.3438H190.519V49.5088H227.111V49.3615Z" fill="#F5F5F5"/>
<path d="M303.556 60.8546C302.298 60.8546 301.092 60.3578 300.203 59.4736C299.314 58.5893 298.815 57.39 298.815 56.1395C298.815 54.889 299.314 53.6896 300.203 52.8054C301.092 51.9211 302.298 51.4244 303.556 51.4244C304.813 51.4244 306.019 51.9211 306.908 52.8054C307.797 53.6896 308.296 54.889 308.296 56.1395C308.296 57.39 307.797 58.5893 306.908 59.4736C306.019 60.3578 304.813 60.8546 303.556 60.8546ZM303.556 52.0137C302.455 52.0137 301.4 52.4484 300.622 53.2222C299.844 53.9959 299.407 55.0453 299.407 56.1395C299.407 57.2337 299.844 58.2831 300.622 59.0568C301.4 59.8305 302.455 60.2652 303.556 60.2652C304.503 60.0847 305.358 59.5813 305.972 58.8418C306.587 58.1022 306.923 57.1727 306.923 56.2132C306.923 55.2536 306.587 54.3241 305.972 53.5845C305.358 52.845 304.503 52.3416 303.556 52.1611V52.0137Z" fill="#F5F5F5"/>
<path d="M302.519 56.7289V59.3811H301.482V53.0452H303.259C304.148 53.0452 304.741 53.0452 305.037 53.4872C305.333 53.9293 305.63 54.224 305.63 54.9607C305.63 55.6974 305.333 56.1395 304.444 56.4342L306.222 59.3811H305.037L303.556 56.8762H302.519V56.7289ZM302.519 55.9921H303.259C303.704 55.9921 304 55.9921 304.296 55.6974C304.593 55.4027 304.593 55.2554 304.593 54.9607C304.593 54.5187 304.593 54.224 304.296 54.0766L303.259 53.9293H302.519V55.9921Z" fill="#F5F5F5"/>
</svg>
