<svg width="83" height="83" viewBox="0 0 83 83" fill="none" xmlns="http://www.w3.org/2000/svg">
<g filter="url(#filter0_d_13_47)">
<path d="M32.5181 0.0929089C14.5867 0.0929089 0 14.6796 0 32.611C0 50.5424 14.5867 65.1291 32.5181 65.1291C37.9997 65.1291 43.3884 63.8284 47.941 61.3199C48.3056 61.7587 48.71 62.163 49.1488 62.5277L58.4397 71.8186C59.2976 72.7839 60.3437 73.5637 61.5139 74.1101C62.6841 74.6564 63.9536 74.9579 65.2444 74.9959C66.5353 75.0339 67.8204 74.8076 69.0207 74.331C70.2209 73.8544 71.3111 73.1375 72.2243 72.2243C73.1375 71.3111 73.8544 70.2209 74.331 69.0207C74.8077 67.8204 75.0339 66.5353 74.9959 65.2444C74.9579 63.9536 74.6564 62.6841 74.1101 61.5139C73.5637 60.3437 72.7839 59.2976 71.8186 58.4397L62.5277 49.1488C62.0751 48.696 61.5769 48.2913 61.0411 47.941C63.5497 43.3884 65.1291 38.0926 65.1291 32.5181C65.1291 14.5867 50.5424 0 32.611 0L32.5181 0.0929089ZM32.5181 9.38379C45.4324 9.38379 55.7453 19.6967 55.7453 32.611C55.7453 38.743 53.5155 44.4104 49.6133 48.5913C49.5204 48.6842 49.4275 48.7772 49.3346 48.8701C48.8958 49.2347 48.4915 49.639 48.1268 50.0779C44.0388 53.7942 38.4643 55.9311 32.4252 55.9311C19.5109 55.9311 9.19798 45.6182 9.19798 32.7039C9.19798 19.7896 19.5109 9.4767 32.4252 9.4767L32.5181 9.38379Z" fill="#F5F5F5"/>
</g>
<defs>
<filter id="filter0_d_13_47" x="0" y="0" width="83" height="83" filterUnits="userSpaceOnUse" color-interpolation-filters="sRGB">
<feFlood flood-opacity="0" result="BackgroundImageFix"/>
<feColorMatrix in="SourceAlpha" type="matrix" values="0 0 0 0 0 0 0 0 0 0 0 0 0 0 0 0 0 0 127 0" result="hardAlpha"/>
<feOffset dx="4" dy="4"/>
<feGaussianBlur stdDeviation="2"/>
<feComposite in2="hardAlpha" operator="out"/>
<feColorMatrix type="matrix" values="0 0 0 0 0 0 0 0 0 0 0 0 0 0 0 0 0 0 0.25 0"/>
<feBlend mode="normal" in2="BackgroundImageFix" result="effect1_dropShadow_13_47"/>
<feBlend mode="normal" in="SourceGraphic" in2="effect1_dropShadow_13_47" result="shape"/>
</filter>
</defs>
</svg>
