<svg width="349" height="349" viewBox="0 0 349 349" fill="none" xmlns="http://www.w3.org/2000/svg">
<path d="M117.466 290.756C138.963 291.475 160.386 287.878 180.469 280.177C200.552 272.476 218.887 260.827 234.391 245.919C249.896 231.011 262.254 213.146 270.737 193.38C279.219 173.615 283.654 152.349 283.778 130.84C293.629 118.649 300.944 104.612 305.294 89.5532C305.618 88.3635 305.592 87.1052 305.218 85.93C304.844 84.7548 304.139 83.7127 303.186 82.9293C302.234 82.1459 301.075 81.6544 299.85 81.5142C298.625 81.374 297.385 81.5909 296.28 82.139C291.126 84.6199 285.324 85.4213 279.69 84.4302C274.057 83.4391 268.876 80.7055 264.879 76.6146C259.775 71.026 253.602 66.5186 246.725 63.3595C239.847 60.2004 232.406 58.4538 224.841 58.2234C217.276 57.9929 209.742 59.2832 202.685 62.0178C195.628 64.7524 189.192 68.8756 183.758 74.1432C176.317 81.3489 170.868 90.357 167.938 100.292C165.009 110.227 164.699 120.751 167.039 130.84C118.338 133.748 84.9011 110.633 58.1516 78.9406C57.348 78.0306 56.2968 77.3742 55.1264 77.0517C53.9559 76.7292 52.7169 76.7545 51.5606 77.1246C50.4043 77.4946 49.3807 78.1933 48.6149 79.1354C47.8492 80.0775 47.3743 81.2222 47.2483 82.4297C42.1524 110.697 45.8284 139.847 57.7826 165.965C69.7369 192.082 89.3968 213.916 114.122 228.534C97.5437 247.547 74.2625 259.422 49.1382 261.68C47.7922 261.904 46.5496 262.542 45.5845 263.506C44.6193 264.471 43.9798 265.713 43.7555 267.059C43.5312 268.404 43.7333 269.787 44.3335 271.012C44.9338 272.237 45.9021 273.244 47.1029 273.892C68.9608 284.815 93.0311 290.584 117.466 290.756Z" fill="#F5F5F5"/>
</svg>
